<svg id="Camada_1" data-name="Camada 1" xmlns="http://www.w3.org/2000/svg" viewBox="0 0 96 96"><defs><style>.cls-1{fill:#fff;}</style></defs><title>favicon</title><path class="cls-1" d="M54.86,54.86V68.57H9.05a2.19,2.19,0,0,1-2.19-2.19V.82A.82.82,0,0,1,7.68,0H19.75a.82.82,0,0,1,.82.82V54a.83.83,0,0,0,.82.83Z"/><path class="cls-1" d="M89.14,57.05V93.81A2.19,2.19,0,0,1,87,96H36.48a2.19,2.19,0,0,1-2.19-2.19V76.25a.82.82,0,0,1,.82-.82H47.18a.82.82,0,0,1,.82.82v5.21a.83.83,0,0,0,.82.83H74.61a.83.83,0,0,0,.82-.83V69.39a.82.82,0,0,0-.82-.82H61.71V54.86H87A2.19,2.19,0,0,1,89.14,57.05Z"/><path class="cls-1" d="M89.14,29.62V47.18a.82.82,0,0,1-.82.82H76.25a.82.82,0,0,1-.82-.82V42a.83.83,0,0,0-.83-.83H48.82A.83.83,0,0,0,48,42v6H34.28V29.62a2.2,2.2,0,0,1,2.2-2.19H87A2.19,2.19,0,0,1,89.14,29.62Z"/></svg>